<svg width="984" height="269" viewBox="0 0 984 269" fill="none" xmlns="http://www.w3.org/2000/svg">
<path d="M0 86.5198C0 38.7363 38.7362 0 86.5198 0H617.895V173.04H86.5198C38.7363 173.04 0 134.303 0 86.5198V86.5198Z" fill="#5339EC"/>
<path d="M87.7764 5.47656C102.641 5.47656 116.243 8.96983 128.581 15.9564C140.919 22.7943 150.655 32.3822 157.79 44.7201C165.074 57.058 168.716 70.9568 168.716 86.4164C168.716 101.876 165.074 115.775 157.79 128.113C150.655 140.451 140.844 150.113 128.358 157.099C116.02 164.086 102.493 167.579 87.7764 167.579C72.9114 167.579 59.2356 164.086 46.7491 157.099C34.4111 150.113 24.6002 140.451 17.3164 128.113C10.0325 115.775 6.39062 101.876 6.39062 86.4164C6.39062 70.9568 10.0325 57.058 17.3164 44.7201C24.6002 32.3822 34.4111 22.7943 46.7491 15.9564C59.2356 8.96983 72.9114 5.47656 87.7764 5.47656ZM87.7764 51.1864C77.8169 51.1864 70.1614 54.3823 64.81 60.7743C59.4586 67.0176 56.7829 75.5649 56.7829 86.4164C56.7829 97.1192 59.4586 105.667 64.81 112.058C70.1614 118.302 77.8169 121.423 87.7764 121.423C97.5873 121.423 105.168 118.302 110.52 112.058C115.871 105.667 118.547 97.1192 118.547 86.4164C118.547 75.5649 115.871 67.0176 110.52 60.7743C105.168 54.3823 97.5873 51.1864 87.7764 51.1864Z" fill="white"/>
<path d="M497.759 102.025C497.759 105.146 497.387 108.417 496.644 111.836H417.488C417.934 118.079 419.346 122.39 421.725 124.768C424.103 126.998 427.225 128.113 431.09 128.113C436.441 128.113 440.306 125.66 442.684 120.754H495.083C493.299 129.673 489.509 137.701 483.712 144.836C478.063 151.822 470.853 157.397 462.083 161.559C453.461 165.572 443.948 167.579 433.542 167.579C421.056 167.579 409.907 164.978 400.096 159.775C390.434 154.572 382.853 147.14 377.353 137.478C372.001 127.667 369.326 116.221 369.326 103.139C369.326 90.0583 372.001 78.6866 377.353 69.0244C382.853 59.2135 390.434 51.7067 400.096 46.5039C409.907 41.3012 421.056 38.6998 433.542 38.6998C446.029 38.6998 457.103 41.3012 466.766 46.5039C476.576 51.558 484.158 58.8418 489.509 68.3554C495.009 77.869 497.759 89.0921 497.759 102.025ZM447.59 91.5448C447.59 86.788 446.252 83.2947 443.576 81.065C440.9 78.6866 437.556 77.4974 433.542 77.4974C424.475 77.4974 419.272 82.1799 417.934 91.5448H447.59Z" fill="white"/>
<path d="M562.915 63.45C567.969 56.1662 574.138 50.3688 581.422 46.058C588.705 41.5985 596.287 39.3687 604.165 39.3687V92.2137H590.118C580.753 92.2137 573.84 93.8489 569.381 97.1192C565.07 100.389 562.915 106.187 562.915 114.511V166.018H513.414V40.2606H562.915V63.45Z" fill="white"/>
<path d="M272.26 62.2278C269.585 61.9305 267.726 61.7819 266.686 61.7819C262.97 61.7819 260.145 62.5251 258.213 64.0116C256.28 65.3495 254.943 67.7279 254.199 71.1468H278.302V112.397H253.753V167.531H204.253V112.397H152.562V71.1468H204.253C204.55 54.7953 209.679 42.1601 219.638 33.2411C229.746 24.1735 243.868 19.6396 262.003 19.6396C264.085 19.6396 267.504 19.7883 272.26 20.0856V62.2278Z" fill="white"/>
<path d="M358.053 62.2278C355.378 61.9305 353.52 61.7819 352.479 61.7819C348.763 61.7819 345.938 62.5251 344.006 64.0116C342.073 65.3495 340.736 67.7279 339.992 71.1468H388.79V112.397H339.546V167.531H290.046V112.397H276.668V71.1468H290.046C290.343 54.7953 295.472 42.1601 305.431 33.2411C315.539 24.1735 329.661 19.6396 347.796 19.6396C349.878 19.6396 353.297 19.7883 358.053 20.0856V62.2278Z" fill="white"/>
<path d="M713.872 0.421361C724.125 0.421361 733.255 2.80911 741.261 7.5846C749.267 12.3601 755.517 19.2424 760.012 28.2316C764.647 37.2207 766.964 47.7549 766.964 59.8341C766.964 71.9133 764.647 82.4474 760.012 91.4366C755.517 100.285 749.267 107.097 741.261 111.873C733.255 116.648 724.125 119.036 713.872 119.036C702.636 119.036 693.085 116.227 685.219 110.609C677.494 104.85 672.157 97.3357 669.207 88.0656V172.339H650.035V1.89615H669.207V31.3918C672.157 22.1218 677.494 14.6776 685.219 9.05938C693.085 3.3007 702.636 0.421361 713.872 0.421361ZM708.394 17.4867C700.95 17.4867 694.208 19.2424 688.169 22.7538C682.129 26.1247 677.424 31.0407 674.053 37.5016C670.682 43.9626 668.997 51.4067 668.997 59.8341C668.997 68.2614 670.682 75.7055 674.053 82.1665C677.424 88.487 682.129 93.403 688.169 96.9143C694.208 100.426 700.95 102.181 708.394 102.181C720.333 102.181 729.814 98.4594 736.837 91.0152C744 83.4306 747.582 73.0369 747.582 59.8341C747.582 46.6312 744 36.3078 736.837 28.8636C729.814 21.279 720.333 17.4867 708.394 17.4867Z" fill="#8B8B8B"/>
<path d="M811.172 25.282C814.964 17.276 820.512 11.096 827.816 6.74187C835.119 2.24729 843.828 0 853.94 0V20.8577H848.041C837.226 20.8577 828.378 23.6668 821.495 29.285C814.613 34.7628 811.172 43.8924 811.172 56.6738V117.561H792V1.89615H811.172V25.282Z" fill="#8B8B8B"/>
<path d="M925.318 0.421361C936.414 0.421361 946.316 2.80911 955.024 7.5846C963.873 12.3601 970.755 19.2424 975.671 28.2316C980.727 37.2207 983.256 47.7549 983.256 59.8341C983.256 71.9133 980.727 82.4474 975.671 91.4366C970.755 100.285 963.873 107.097 955.024 111.873C946.316 116.648 936.414 119.036 925.318 119.036C914.222 119.036 904.249 116.648 895.401 111.873C886.692 107.097 879.81 100.285 874.754 91.4366C869.697 82.4474 867.169 71.9133 867.169 59.8341C867.169 47.7549 869.697 37.2207 874.754 28.2316C879.81 19.2424 886.692 12.3601 895.401 7.5846C904.249 2.80911 914.222 0.421361 925.318 0.421361ZM925.318 17.276C918.435 17.276 912.045 18.821 906.145 21.9111C900.387 25.0011 895.682 29.7766 892.03 36.2375C888.518 42.558 886.763 50.4235 886.763 59.8341C886.763 69.1041 888.518 76.9697 892.03 83.4306C895.682 89.7511 900.387 94.4564 906.145 97.5464C912.045 100.636 918.435 102.181 925.318 102.181C932.2 102.181 938.52 100.636 944.279 97.5464C950.178 94.4564 954.884 89.7511 958.395 83.4306C962.047 76.9697 963.873 69.1041 963.873 59.8341C963.873 50.4235 962.047 42.558 958.395 36.2375C954.884 29.7766 950.178 25.0011 944.279 21.9111C938.52 18.821 932.2 17.276 925.318 17.276Z" fill="#8B8B8B"/>
<circle cx="617.99" cy="224.516" r="34.045" fill="#5339EC"/>
<circle cx="681.453" cy="253.93" r="15.0706" fill="#5339EC"/>
</svg>
