<svg width="22" height="23" viewBox="0 0 22 23" fill="none" xmlns="http://www.w3.org/2000/svg">
<g clip-path="url(#clip0_766_949)">
<path fill-rule="evenodd" clip-rule="evenodd" d="M7.17931 1.01705C7.33104 0.916111 7.51663 0.879545 7.69531 0.915383C7.87398 0.951221 8.03112 1.05653 8.13219 1.20817L8.94481 2.4278C9.39291 2.32686 9.85086 2.27613 10.3102 2.27655H11.6852C12.1545 2.27746 12.6096 2.32788 13.0506 2.4278L13.8632 1.20817C13.9119 1.13015 13.9758 1.06269 14.051 1.0098C14.1263 0.95691 14.2114 0.919656 14.3013 0.900247C14.3912 0.880837 14.4841 0.879667 14.5745 0.896804C14.6648 0.913942 14.7508 0.94904 14.8274 1.00002C14.904 1.051 14.9695 1.11682 15.0202 1.19359C15.0708 1.27036 15.1056 1.35652 15.1223 1.44696C15.1391 1.5374 15.1376 1.63029 15.1178 1.72011C15.098 1.80994 15.0604 1.89489 15.0072 1.96992L14.3898 2.89667C15.9161 3.63917 17.0986 4.98667 17.5936 6.63667C17.908 6.47108 18.2598 6.38953 18.615 6.39992C18.9702 6.41032 19.3167 6.51231 19.6209 6.69601C19.9251 6.87972 20.1767 7.13889 20.3512 7.44842C20.5258 7.75795 20.6174 8.10732 20.6172 8.46267V13.9627C20.6174 14.2927 20.5383 14.618 20.3867 14.9112C20.2351 15.2043 20.0154 15.4568 19.7459 15.6475C19.4765 15.8381 19.1652 15.9613 18.8383 16.0067C18.5114 16.052 18.1784 16.0183 17.8672 15.9083V16.0252C17.8672 17.5377 16.6366 18.7752 15.1172 18.7752V20.8377C15.1168 21.3847 14.8992 21.9091 14.5121 22.2957C14.1251 22.6822 13.6003 22.8992 13.0533 22.8988C12.5063 22.8984 11.9818 22.6808 11.5953 22.2937C11.2088 21.9067 10.9918 21.3819 10.9922 20.8349C10.9933 21.1062 10.9407 21.375 10.8375 21.6259C10.7342 21.8768 10.5824 22.1048 10.3907 22.2967C10.199 22.4887 9.97121 22.6408 9.72047 22.7444C9.46973 22.848 9.20098 22.9009 8.92969 22.9002C8.38268 22.9002 7.85807 22.6829 7.47128 22.2961C7.08449 21.9093 6.86719 21.3847 6.86719 20.8377V18.7752C5.35469 18.7752 4.11719 17.5445 4.11719 16.0252V15.9083C3.80601 16.0183 3.47298 16.052 3.14606 16.0067C2.81915 15.9613 2.5079 15.8381 2.23846 15.6475C1.96903 15.4568 1.74927 15.2043 1.59766 14.9112C1.44605 14.618 1.36701 14.2927 1.36719 13.9627V8.46267C1.36699 8.10732 1.45861 7.75795 1.63317 7.44842C1.80772 7.13889 2.05928 6.87972 2.36347 6.69601C2.66765 6.51231 3.01414 6.41032 3.36934 6.39992C3.72454 6.38953 4.0764 6.47108 4.39081 6.63667C4.64037 5.82717 5.05349 5.07754 5.60458 4.43421C6.15567 3.79088 6.83298 3.26756 7.59456 2.89667L6.97719 1.96992C6.87625 1.81819 6.83969 1.6326 6.87552 1.45393C6.91136 1.27525 7.01667 1.11811 7.16831 1.01705H7.17931ZM4.12681 13.9695V8.46955C4.12681 8.28721 4.05438 8.11234 3.92545 7.98341C3.79652 7.85448 3.62165 7.78205 3.43931 7.78205C3.25698 7.78205 3.08211 7.85448 2.95318 7.98341C2.82425 8.11234 2.75181 8.28721 2.75181 8.46955V13.9695C2.75181 14.1519 2.82425 14.3268 2.95318 14.4557C3.08211 14.5846 3.25698 14.657 3.43931 14.657C3.62165 14.657 3.79652 14.5846 3.92545 14.4557C4.05438 14.3268 4.12681 14.1519 4.12681 13.9695ZM5.50181 8.46955C5.50181 8.65188 5.57425 8.82675 5.70318 8.95568C5.83211 9.08461 6.00698 9.15705 6.18931 9.15705H15.8143C15.9966 9.15705 16.1715 9.08461 16.3004 8.95568C16.4294 8.82675 16.5018 8.65188 16.5018 8.46955C16.5018 5.8158 14.3431 3.65705 11.6893 3.65705H10.3143C7.66056 3.65705 5.50181 5.8158 5.50181 8.46955ZM17.8768 13.9695C17.8768 14.1519 17.9492 14.3268 18.0782 14.4557C18.2071 14.5846 18.382 14.657 18.5643 14.657C18.7466 14.657 18.9215 14.5846 19.0504 14.4557C19.1794 14.3268 19.2518 14.1519 19.2518 13.9695V8.46955C19.2518 8.28721 19.1794 8.11234 19.0504 7.98341C18.9215 7.85448 18.7466 7.78205 18.5643 7.78205C18.382 7.78205 18.2071 7.85448 18.0782 7.98341C17.9492 8.11234 17.8768 8.28721 17.8768 8.46955V13.9695ZM16.5018 11.2195C16.5018 11.0372 16.4294 10.8623 16.3004 10.7334C16.1715 10.6045 15.9966 10.532 15.8143 10.532H6.18931C6.00698 10.532 5.83211 10.6045 5.70318 10.7334C5.57425 10.8623 5.50181 11.0372 5.50181 11.2195V16.032C5.50181 16.3967 5.64668 16.7465 5.90454 17.0043C6.1624 17.2622 6.51214 17.407 6.87681 17.407H7.56431C7.74665 17.407 7.92152 17.4795 8.05045 17.6084C8.17938 17.7373 8.25181 17.9122 8.25181 18.0945V20.8445C8.25181 21.0269 8.32425 21.2018 8.45318 21.3307C8.58211 21.4596 8.75698 21.532 8.93931 21.532C9.12165 21.532 9.29652 21.4596 9.42545 21.3307C9.55438 21.2018 9.62681 21.0269 9.62681 20.8445V18.0945C9.62681 17.9122 9.69925 17.7373 9.82818 17.6084C9.95711 17.4795 10.132 17.407 10.3143 17.407H11.6893C11.8716 17.407 12.0465 17.4795 12.1754 17.6084C12.3044 17.7373 12.3768 17.9122 12.3768 18.0945V20.8445C12.3768 21.0269 12.4492 21.2018 12.5782 21.3307C12.7071 21.4596 12.882 21.532 13.0643 21.532C13.2466 21.532 13.4215 21.4596 13.5504 21.3307C13.6794 21.2018 13.7518 21.0269 13.7518 20.8445V18.0945C13.7518 17.9122 13.8242 17.7373 13.9532 17.6084C14.0821 17.4795 14.257 17.407 14.4393 17.407H15.1268C15.4915 17.407 15.8412 17.2622 16.0991 17.0043C16.3569 16.7465 16.5018 16.3967 16.5018 16.032V11.2195ZM9.62681 5.71955C9.62681 5.90188 9.55438 6.07675 9.42545 6.20568C9.29652 6.33461 9.12165 6.40705 8.93931 6.40705C8.75698 6.40705 8.58211 6.33461 8.45318 6.20568C8.32425 6.07675 8.25181 5.90188 8.25181 5.71955C8.25181 5.53721 8.32425 5.36234 8.45318 5.23341C8.58211 5.10448 8.75698 5.03205 8.93931 5.03205C9.12165 5.03205 9.29652 5.10448 9.42545 5.23341C9.55438 5.36234 9.62681 5.53721 9.62681 5.71955ZM13.0643 6.40705C13.2466 6.40705 13.4215 6.33461 13.5504 6.20568C13.6794 6.07675 13.7518 5.90188 13.7518 5.71955C13.7518 5.53721 13.6794 5.36234 13.5504 5.23341C13.4215 5.10448 13.2466 5.03205 13.0643 5.03205C12.882 5.03205 12.7071 5.10448 12.5782 5.23341C12.4492 5.36234 12.3768 5.53721 12.3768 5.71955C12.3768 5.90188 12.4492 6.07675 12.5782 6.20568C12.7071 6.33461 12.882 6.40705 13.0643 6.40705Z" fill="currentColor"/>
</g>
<defs>
<clipPath id="clip0_766_949">
<rect width="22" height="22" fill="white" transform="translate(0 0.901367)"/>
</clipPath>
</defs>
</svg>
