<svg width="8" height="8" viewBox="0 0 8 8" fill="none" xmlns="http://www.w3.org/2000/svg">
<g clip-path="url(#clip0_771_952)">
<path d="M4.25029 5.26128L4.67104 5.68232L5.93359 4.41978L4.67104 3.15723L4.25029 3.57798L4.79424 4.12221H2.55152V4.71734H4.79424L4.25029 5.26128Z" fill="#B4B4B4"/>
<path fill-rule="evenodd" clip-rule="evenodd" d="M2.15954 1.13867C1.84387 1.13867 1.54113 1.26407 1.31791 1.48729C1.0947 1.7105 0.969298 2.01324 0.969298 2.32891V6.49476C0.969298 6.81043 1.0947 7.11317 1.31791 7.33639C1.54113 7.5596 1.84387 7.685 2.15954 7.685H6.32538C6.64106 7.685 6.9438 7.5596 7.16701 7.33639C7.39022 7.11317 7.51562 6.81043 7.51562 6.49476V2.32891C7.51562 2.01324 7.39022 1.7105 7.16701 1.48729C6.9438 1.26407 6.64106 1.13867 6.32538 1.13867L2.15954 1.13867ZM1.56442 2.32891V6.49476C1.56442 6.65259 1.62712 6.80396 1.73873 6.91557C1.85033 7.02718 2.0017 7.08988 2.15954 7.08988H6.32538C6.48322 7.08988 6.63459 7.02718 6.7462 6.91557C6.8578 6.80396 6.9205 6.65259 6.9205 6.49476V2.32891C6.9205 2.17108 6.8578 2.01971 6.7462 1.9081C6.63459 1.79649 6.48322 1.73379 6.32538 1.73379L2.15954 1.73379C2.0017 1.73379 1.85033 1.79649 1.73873 1.9081C1.62712 2.01971 1.56442 2.17108 1.56442 2.32891Z" fill="#B4B4B4"/>
</g>
<defs>
<clipPath id="clip0_771_952">
<rect width="7.14145" height="7.14145" fill="white" transform="matrix(0 1 -1 0 7.8125 0.84082)"/>
</clipPath>
</defs>
</svg>
