<svg width="354" height="257" viewBox="0 0 354 257" fill="none" xmlns="http://www.w3.org/2000/svg">
<g clip-path="url(#clip0_404_191)">
<path d="M303.147 122.062H17.1475C3.54754 122.062 0.147517 109.729 0.147503 103.562C-1.8525 77.1625 16.9808 69.8958 26.6475 69.5625H308.147C346.147 69.5625 354.314 105.896 353.647 124.062C352.447 179.262 311.814 190.729 291.647 189.562H247.648L239.148 237.062C236.648 243.062 227.448 255.262 210.648 256.062C193.848 256.862 190.981 245.062 191.648 239.062L201.148 175.062C205.148 142.562 221.648 137.396 230.148 137.062H303.147C305.814 136.562 310.947 134.162 310.147 128.562C309.348 122.962 305.147 121.895 303.147 122.062Z" fill="#5C5C5C"/>
<path d="M122.648 66.0643H63.1484C72.9817 43.231 106.048 -1.93572 159.648 0.0642827C226.648 2.56428 239.148 57.0643 239.648 84.0643C240.048 105.664 231.815 126.398 227.648 134.064C205.648 138.064 198.482 158.731 197.648 168.564C174.848 188.564 142.482 192.898 129.148 192.564C79.1484 189.764 58.6484 147.398 54.6484 126.564H111.148C123.148 141.064 154.648 148.564 177.648 121.564C196.048 99.9643 189.648 77.2309 184.148 68.5643C180.315 63.8976 169.048 54.3643 154.648 53.5643C140.248 52.7643 127.315 61.5643 122.648 66.0643Z" fill="#5339EC"/>
</g>
<defs>
<clipPath id="clip0_404_191">
<rect width="354" height="257" fill="white"/>
</clipPath>
</defs>
</svg>
