<svg width="354" height="257" viewBox="0 0 354 257" fill="none" xmlns="http://www.w3.org/2000/svg">
<path d="M303.147 122.064H17.1475C3.54754 122.064 0.147517 109.731 0.147503 103.564C-1.8525 77.1642 16.9808 69.8975 26.6475 69.5642H308.147C346.147 69.5642 354.314 105.898 353.647 124.064C352.447 179.264 311.814 190.731 291.647 189.564H247.648L239.148 237.064C236.648 243.064 227.448 255.264 210.648 256.064C193.848 256.864 190.981 245.064 191.648 239.064L201.148 175.064C205.148 142.564 221.648 137.398 230.148 137.064H303.147C305.814 136.564 310.947 134.164 310.147 128.564C309.348 122.964 305.147 121.897 303.147 122.064Z" fill="white"/>
<path d="M122.647 66.0643H63.1475C72.9808 43.231 106.047 -1.93572 159.647 0.0642826C226.647 2.56428 239.147 57.0643 239.647 84.0643C240.047 105.664 231.814 126.398 227.647 134.064C205.647 138.064 198.481 158.731 197.647 168.564C174.847 188.564 142.481 192.898 129.147 192.564C79.1475 189.764 58.6475 147.398 54.6475 126.564H111.147C123.147 141.064 154.647 148.564 177.647 121.564C196.047 99.9643 189.647 77.2309 184.147 68.5643C180.314 63.8976 169.047 54.3643 154.647 53.5643C140.247 52.7643 127.314 61.5643 122.647 66.0643Z" fill="#5339EC"/>
</svg>
